<svg xmlns="http://www.w3.org/2000/svg" width="20" height="22.867" viewBox="0 0 20 22.867">
    <defs>
        <style>
            .a { fill: #a3a3a3; }
            .b { fill: #ebebeb; }
        </style>
    </defs>
    <g transform="translate(0.01 0)">
        <g transform="translate(-0.01 0)">
            <!-- Body -->
            <path class="a" d="M.018,431.787c.194,1.38,1.57,1.28,2.344,1.28H17c1.283,0,2.275.166,2.819-.792.392-.69.021-2.369-.22-3.084a7.069,7.069,0,0,0-1.491-2.557,7.548,7.548,0,0,0-4.308-2.473,42.539,42.539,0,0,0-7.073-.09,7.8,7.8,0,0,0-5.57,3.515,7.536,7.536,0,0,0-1.14,4.2Z" transform="translate(0.01 -410.21)"/>
            
            <!-- Head -->
            <path class="b" d="M145.939,6.228a5.483,5.483,0,0,0-1.306-4.239,6.034,6.034,0,0,0-8.214-.694,5.4,5.4,0,0,0-2,3.6c-.689,5.189,5.625,8.173,9.515,4.965a5.171,5.171,0,0,0,1.317-1.528A5.513,5.513,0,0,0,145.939,6.228Z" transform="translate(-130.173 0)"/>
            
            <!-- Plus (+) Symbol -->
            <g fill="#a3a3a3">
                <rect x="14" y="4" width="3" height="8"/> <!-- Vertical bar -->
                <rect x="11" y="7" width="8" height="3"/> <!-- Horizontal bar -->
            </g>
        </g>
    </g>
</svg>
