<svg xmlns="http://www.w3.org/2000/svg" width="22.969" height="22.969" viewBox="0 0 22.969 22.969"><defs><style>.a{fill:#ffecbe;}.b{fill:none;stroke:#d19f23;stroke-linecap:round;stroke-linejoin:round;stroke-width:2px;}</style></defs><g transform="translate(0.5 0.5)"><path class="a" d="M10.984,21.469c6.71,0,10.484-3.774,10.484-10.484S17.694.5,10.984.5.5,4.274.5,10.984,4.274,21.469,10.984,21.469Z" transform="translate(0 0)"/><path class="a" d="M15.245,14.769a12.029,12.029,0,0,1-5.975,1.376A12.028,12.028,0,0,1,3.3,14.769v-.988a6.182,6.182,0,0,1,11.95,0v.988Z" transform="translate(1.714 5.324)"/><path class="b" d="M15.245,13.781a6.182,6.182,0,0,0-11.95,0" transform="translate(1.714 5.324)"/><path class="b" d="M10.984,21.469c6.71,0,10.484-3.774,10.484-10.484S17.694.5,10.984.5.5,4.274.5,10.984,4.274,21.469,10.984,21.469Z" transform="translate(0 0)"/><path class="a" d="M8.34,10.262a3.2,3.2,0,0,0,3.528-3.528A3.2,3.2,0,0,0,8.34,3.2,3.2,3.2,0,0,0,4.812,6.733,3.2,3.2,0,0,0,8.34,10.262Z" transform="translate(2.643 1.658)"/><path class="b" d="M8.34,10.262a3.2,3.2,0,0,0,3.528-3.528A3.2,3.2,0,0,0,8.34,3.2,3.2,3.2,0,0,0,4.812,6.733,3.2,3.2,0,0,0,8.34,10.262Z" transform="translate(2.643 1.658)"/></g></svg>