<svg xmlns="http://www.w3.org/2000/svg" width="18.876" height="16.317" viewBox="0 0 18.876 16.317"><defs><style>.a,.b{fill:#f7f7f7;}.b{stroke:#a3a3a3;stroke-linecap:round;stroke-linejoin:round;stroke-width:2px;}</style></defs><g transform="translate(0.25 -0.724)"><path class="a" d="M17.626,4.867V6.438a2.7,2.7,0,0,0,0,4.959v1.571a2.745,2.745,0,0,1-2.7,2.7,37.864,37.864,0,0,1-11.476,0,2.774,2.774,0,0,1-2.7-2.7V11.4a2.7,2.7,0,0,0,1.63-2.48A2.7,2.7,0,0,0,.75,6.438V4.867c0-1.491,1.127-2.433,2.7-2.7a31.812,31.812,0,0,1,11.476,0,2.849,2.849,0,0,1,2.7,2.7Z" transform="translate(0 0)"/><path class="b" d="M17.626,4.867V6.438a2.7,2.7,0,0,0,0,4.959v1.571a2.745,2.745,0,0,1-2.7,2.7,37.864,37.864,0,0,1-11.476,0,2.774,2.774,0,0,1-2.7-2.7V11.4a2.7,2.7,0,0,0,1.63-2.48A2.7,2.7,0,0,0,.75,6.438V4.867c0-1.491,1.127-2.433,2.7-2.7a31.812,31.812,0,0,1,11.476,0,2.849,2.849,0,0,1,2.7,2.7Z" transform="translate(0 0)"/><path class="a" d="M5.363,6.493A1.322,1.322,0,1,0,4.041,5.171,1.322,1.322,0,0,0,5.363,6.493Z" transform="translate(1.152 0.772)"/><path class="b" d="M5.363,6.493A1.322,1.322,0,1,0,4.041,5.171,1.322,1.322,0,0,0,5.363,6.493Z" transform="translate(1.152 0.771)"/><path class="a" d="M9.363,10.514A1.322,1.322,0,1,0,8.041,9.191,1.322,1.322,0,0,0,9.363,10.514Z" transform="translate(2.553 2.179)"/><path class="b" d="M9.363,10.513A1.322,1.322,0,1,0,8.041,9.191,1.322,1.322,0,0,0,9.363,10.513Z" transform="translate(2.553 2.179)"/><path class="b" d="M4.706,10.728A36.875,36.875,0,0,0,10.9,4.534" transform="translate(1.385 1.012)"/></g></svg>