<svg xmlns="http://www.w3.org/2000/svg" width="23.472" height="21.231" viewBox="0 0 23.472 21.231"><defs><style>.a{fill:#ffecbe;}.b{fill:none;stroke:#d19f23;stroke-linecap:round;stroke-linejoin:round;stroke-width:2px;}.c{fill:#fff;}</style></defs><g transform="translate(0.36 -0.391)"><path class="a" d="M6.029,20.62H16.721a2.291,2.291,0,0,0,2.266-1.944,22.827,22.827,0,0,0,.189-5.368h2.069a.845.845,0,0,0,.713-1.3l-.358-.563a33.8,33.8,0,0,0-8.087-8.8L12.4,1.8a1.69,1.69,0,0,0-2.045,0L9.237,2.65a33.8,33.8,0,0,0-8.089,8.8l-.357.563a.845.845,0,0,0,.713,1.3H3.574a22.927,22.927,0,0,0,.189,5.368,2.292,2.292,0,0,0,2.265,1.944Z" transform="translate(0)"/><path class="b" d="M6.029,20.619H16.721a2.291,2.291,0,0,0,2.266-1.944,22.919,22.919,0,0,0,.191-5.368h2.067a.845.845,0,0,0,.713-1.3l-.358-.563a33.8,33.8,0,0,0-8.087-8.8L12.4,1.8a1.69,1.69,0,0,0-2.045,0L9.237,2.65a33.8,33.8,0,0,0-8.087,8.8l-.358.563a.845.845,0,0,0,.713,1.3H3.574a22.928,22.928,0,0,0,.189,5.368,2.292,2.292,0,0,0,2.265,1.944Z" transform="translate(0 0.001)"/><path class="c" d="M8.151,8.089a2.818,2.818,0,0,1,2.819,2.817v5.138H5.332V10.906A2.819,2.819,0,0,1,8.151,8.089Z" transform="translate(3.224 4.575)"/><path class="b" d="M8.151,8.089a2.818,2.818,0,0,1,2.817,2.817v5.138H5.332V10.906A2.819,2.819,0,0,1,8.151,8.089Z" transform="translate(3.224 4.575)"/></g></svg>