<svg xmlns="http://www.w3.org/2000/svg" width="18.939" height="17.193" viewBox="0 0 18.939 17.193"><defs><style>.a{fill:#fff;}.b{fill:none;stroke:#a3a3a3;stroke-linecap:round;stroke-linejoin:round;stroke-width:2px;}</style></defs><g transform="translate(0.2 0.22)"><path class="a" d="M9.572,15.449c5.227,0,8.168-2.64,8.168-7.334S14.8.78,9.572.78,1.4,3.42,1.4,8.114a8.058,8.058,0,0,0,.8,3.709L.864,15.14a.567.567,0,0,0,.151.636.736.736,0,0,0,.7.154l3.846-1.152a10.961,10.961,0,0,0,4.008.672Z" transform="translate(0 0)"/><path class="b" d="M9.572,15.449c5.227,0,8.168-2.64,8.168-7.334S14.8.78,9.572.78,1.4,3.42,1.4,8.114a8.058,8.058,0,0,0,.8,3.709L.864,15.14a.567.567,0,0,0,.151.636.736.736,0,0,0,.7.154l3.846-1.152a10.961,10.961,0,0,0,4.008.672Z" transform="translate(0 0)"/><path class="b" d="M4.385,6.567v.589" transform="translate(1.287 1.258)"/><path class="b" d="M7.3,6.567v.589" transform="translate(2.342 1.258)"/><path class="b" d="M10.224,6.567v.589" transform="translate(3.396 1.258)"/></g></svg>