<svg xmlns="http://www.w3.org/2000/svg" width="131.111" height="102.431" viewBox="0 0 131.111 102.431"><defs><style>.a{fill:#fb2278;}.b{fill:#303030;}.c{fill:#d19f23;}</style></defs><g transform="translate(-95.001 24.273) rotate(-17)"><g transform="translate(116.254 26.996)"><ellipse class="a" cx="0.191" cy="0.112" rx="0.191" ry="0.112" transform="matrix(0.115, 0.993, -0.993, 0.115, 0.222, 0)"/><ellipse class="a" cx="0.403" cy="0.33" rx="0.403" ry="0.33" transform="translate(76.654 80.524) rotate(1.8)"/></g><g transform="translate(92.09 20.29)"><path class="b" d="M248.138,20.331a.062.062,0,0,1,.044-.04.066.066,0,0,1,.059.014q.041.038.005.1a.061.061,0,0,1-.1.014A.078.078,0,0,1,248.138,20.331Z" transform="translate(-221.025 -20.29)"/><path class="b" d="M132.83,96.834q.366.043.1.023a24.361,24.361,0,0,0-.524,3.635.046.046,0,0,1-.061.023l-13.133.005a.05.05,0,0,0-.038.019.046.046,0,0,0-.008.041l7.919,29.595a.142.142,0,0,0,.139.106l3.3,0a2,2,0,0,0,.13.436,3.685,3.685,0,0,1,.158.425,22.285,22.285,0,0,1,.484,2.392.177.177,0,0,1-.04.146l-.11.137q-.068.086.038.11l.213.047-5.176,0a.552.552,0,0,0-.321.1l-3.874,2.747a.157.157,0,0,0-.067.128V141.9a.084.084,0,0,0,.085.083q26.148,0,63.417,0a1.755,1.755,0,0,1,1.549.728,1.875,1.875,0,0,1-.632,2.756,2.93,2.93,0,0,1-1.176.169q-56.753,0-64.624.009a3.09,3.09,0,0,1-1.118-.122,1.73,1.73,0,0,1-1.154-1.725q-.007-5.329,0-7.831a1.773,1.773,0,0,1,.728-1.5q.719-.535,4.467-3.181a.123.123,0,0,0,.049-.131L111.782,87.18a.237.237,0,0,0-.1-.14q-8.033-5.075-13.045-8.225a1.824,1.824,0,0,1-.96-1.96,1.787,1.787,0,0,1,2.192-1.48,3.548,3.548,0,0,1,.989.483q6.808,4.3,13.279,8.382a1.822,1.822,0,0,1,.969,1.2q.308,1.01.423,1.455.612,2.37,2.624,9.873a.082.082,0,0,0,.079.061Z" transform="translate(-97.642 -65.414)"/><path class="b" d="M533.843,194.755q5.529-.005,10.981,0a3.028,3.028,0,0,1,1.4.234,1.764,1.764,0,0,1,.929,1.4,4.94,4.94,0,0,1-.265,1.5q-.621,2.241-1.221,4.564a14.636,14.636,0,0,1-3.395.122,1.062,1.062,0,0,1-.387-.133l1.034-3.872a.112.112,0,0,0-.108-.14h-9.382l-.117-.023.477-3.635Q533.578,194.775,533.843,194.755Z" transform="translate(-454.844 -163.33)"/><path class="b" d="M256.535,475.994a13.579,13.579,0,0,0-2.259.974q-.427.256-1.81,1.335l.144.065a4.2,4.2,0,0,0-4.632,5.146,4.16,4.16,0,0,0,3.184,3.148l.281.081q-.229.029-.1.33a6.793,6.793,0,0,0,1.4,1.916c.324.333.828.63,1.23.969a.716.716,0,0,0,.358.135.353.353,0,0,1-.135.059A7.9,7.9,0,0,1,249.739,475,7.78,7.78,0,0,1,256.535,475.994Z" transform="translate(-217.798 -392.791)"/><path class="b" d="M483.248,476.241a3.227,3.227,0,0,1-.773.344,3.058,3.058,0,0,0-.755.24,19.228,19.228,0,0,0-2.365,1.648l.124.061a4.44,4.44,0,0,0-3.415.827,4.234,4.234,0,0,0,2.035,7.523l.2.045q-.166.038-.072.249a8.2,8.2,0,0,0,.949,1.38,6.972,6.972,0,0,0,.845.839,6.056,6.056,0,0,1,.825.875,7.882,7.882,0,1,1,2.4-14.03Z" transform="translate(-403.573 -392.942)"/></g><g transform="translate(90.87 27.71)"><circle class="c" cx="0.106" cy="0.106" r="0.106"/><path class="c" d="M313.167,237.8l-6.833,25.552a.2.2,0,0,1-.189.144l-47.1,0,.083-.018a.081.081,0,0,0,.067-.121,9.719,9.719,0,0,1-.268-1.075q-2.251-11.017-4.486-22.038a1.848,1.848,0,0,1,1.639-2.325q1.12-.1,4.139,0a.982.982,0,0,1,0,.277q-.629,4.288-1.794,12.069a1.774,1.774,0,0,0,.648,1.821,3.491,3.491,0,0,0,1.513.484q3.559.521,37.853,5.553a3.944,3.944,0,0,0,1.639.009c.877-.3,1.126-1.046,1.261-1.976q1.295-8.939,2.331-16.06.149-1.023.358-2.194,4.5-.018,9.007,0a.1.1,0,0,0,.081-.025A.239.239,0,0,0,313.167,237.8Z" transform="translate(-224.943 -206.046)"/><path class="c" d="M285.07,267.588q23.788-.014,47.58,0a2.047,2.047,0,0,0,1.556-.643,4.462,4.462,0,0,0,.668-1.68q3.472-13.022,6.968-26.038.131-.5.263-.922,1.778-.007,3.51-.018a1.889,1.889,0,0,1,1.873,2.491q-5.965,22.247-6.887,25.714-.594,2.232-1.216,4.454a1.587,1.587,0,0,1-.958,1.117,4.036,4.036,0,0,1-1.354.157q-20.721-.009-49.268,0a1.879,1.879,0,0,1-2.086-1.574Z" transform="translate(-250.094 -206.447)"/><ellipse class="c" cx="0.186" cy="0.128" rx="0.186" ry="0.128" transform="matrix(-0.652, 0.758, -0.758, -0.652, 113.747, 33.302)"/><ellipse class="c" cx="0.355" cy="0.258" rx="0.355" ry="0.258" transform="matrix(-0.237, 0.972, -0.972, -0.237, 93.966, 60.165)"/><path class="c" d="M299.74,496.214a.352.352,0,0,0,.135-.059,7.758,7.758,0,0,0,4.978-4.337,7.924,7.924,0,0,0-1.515-8.679c-.315-.337-.755-.657-1.126-1.009a7.749,7.749,0,0,1,5.682,1.133,7.641,7.641,0,0,1-1.978,13.681,7.626,7.626,0,0,1-5.7-.506C300.073,496.369,299.967,496.192,299.74,496.214Z" transform="translate(-262.121 -406.273)"/><path class="c" d="M527.88,496.118a7.932,7.932,0,0,0,4.589-3.858,7.811,7.811,0,0,0-.265-7.8,8.585,8.585,0,0,0-2.091-2.284,7.561,7.561,0,0,1,7.265,2.089,7.653,7.653,0,0,1-9.5,11.855Z" transform="translate(-449.172 -406.251)"/><path class="c" d="M708.266,482.661l-.1.3q-.02.061-.056.022l0,0q-.027-.029-.018-.047a1.727,1.727,0,0,0,.16-.827.084.084,0,0,1,.024-.062.087.087,0,0,1,.062-.026h.056a.121.121,0,0,1,.115.083.315.315,0,0,1-.128.421A.234.234,0,0,0,708.266,482.661Z" transform="translate(-596.923 -406.28)"/><path class="c" d="M281.359,495.08a4.252,4.252,0,1,1-1.023,8.44l-.281-.081a2.888,2.888,0,0,0-.178-.565,3.86,3.86,0,0,1-.207-.555,7.911,7.911,0,0,1,.746-5.742,5.561,5.561,0,0,1,1.088-1.432Z" transform="translate(-245.471 -416.988)"/><path class="c" d="M509.817,495.18a4.763,4.763,0,0,1,2.637,1.6,4.248,4.248,0,0,1-.778,6.021,4.136,4.136,0,0,1-2.916.839l-.2-.045a.1.1,0,0,0,.032-.124,7.6,7.6,0,0,1,.524-7.148,10.459,10.459,0,0,1,.823-1.077Z" transform="translate(-432.815 -417.07)"/><path class="c" d="M675.453,540.9a7.974,7.974,0,0,0,.8-.308,2.622,2.622,0,0,1,1.464-.155.213.213,0,0,0,.16-.056l.92-.8a.031.031,0,0,1,.025-.009.035.035,0,0,1,.024.012l.04.047a.024.024,0,0,1,0,.038l-.962.834a.534.534,0,0,1-.353.133h-1.241a.328.328,0,0,0-.16.041,2.287,2.287,0,0,1-.7.263.022.022,0,1,1-.011-.043Z" transform="translate(-570.153 -453.466)"/><ellipse class="c" cx="0.434" cy="0.149" rx="0.434" ry="0.149" transform="matrix(0.997, 0.073, -0.073, 0.997, 107.258, 90.61)"/><path class="c" d="M690.885,565.982a.626.626,0,0,0-.286-.263q-.256-.1-.007-.195.191-.074.5.4a.232.232,0,0,1-.133.353c-.24.065-.89.065-1.028-.27q-.047-.112.065-.061a1.758,1.758,0,0,0,.823.177.09.09,0,0,0,.07-.139Z" transform="translate(-582.022 -474.737)"/></g><path class="c" d="M322.254,237.47q-.031.14-.005.16-.209,1.171-.358,2.194-1.036,7.121-2.331,16.06c-.135.929-.384,1.679-1.261,1.976a3.945,3.945,0,0,1-1.639-.009q-34.294-5.032-37.853-5.553a3.49,3.49,0,0,1-1.513-.484,1.774,1.774,0,0,1-.648-1.821q1.165-7.781,1.794-12.069a.983.983,0,0,0,0-.277.18.18,0,0,0,.065-.092,2.229,2.229,0,0,0,.3.045q21.481.011,42.961,0A2.338,2.338,0,0,0,322.254,237.47Z" transform="translate(-152.291 -178.065)"/><g transform="translate(124.973 59.4)"><path class="c" d="M338.158,237.451l-.029.16q-.131.427-.263.922-3.5,13.016-6.968,26.038a4.461,4.461,0,0,1-.668,1.68,2.048,2.048,0,0,1-1.556.643q-23.792-.018-47.58,0l-.213-.047q-.106-.023-.038-.11l.11-.137a.177.177,0,0,0,.04-.146,22.294,22.294,0,0,0-.484-2.392,3.689,3.689,0,0,0-.159-.425,2,2,0,0,1-.13-.436l47.1,0a.2.2,0,0,0,.189-.144l6.833-25.552.034-.065a1.063,1.063,0,0,0,.387.133A14.637,14.637,0,0,0,338.158,237.451Z" transform="translate(-280.22 -237.44)"/><path class="b" d="M288.88,482.26a.22.22,0,0,0,.135.074c.371.351.81.672,1.126,1.009a7.924,7.924,0,0,1,1.515,8.679,7.758,7.758,0,0,1-4.978,4.337.715.715,0,0,1-.358-.135c-.4-.339-.906-.636-1.23-.969a6.794,6.794,0,0,1-1.4-1.916q-.131-.3.1-.33a4.253,4.253,0,1,0,1.023-8.44q1.383-1.079,1.81-1.335A13.58,13.58,0,0,1,288.88,482.26Z" transform="translate(-283.027 -438.167)"/><path class="b" d="M517.007,482.79q-.041.018.047.045a8.585,8.585,0,0,1,2.091,2.284,7.811,7.811,0,0,1,.265,7.8,7.932,7.932,0,0,1-4.589,3.858l-.216.041a6.056,6.056,0,0,0-.825-.875,6.977,6.977,0,0,1-.845-.839,8.2,8.2,0,0,1-.949-1.38q-.094-.211.072-.249a4.136,4.136,0,0,0,2.916-.839,4.248,4.248,0,0,0,.778-6.021,4.762,4.762,0,0,0-2.637-1.6,19.224,19.224,0,0,1,2.365-1.648,3.058,3.058,0,0,1,.755-.24A3.225,3.225,0,0,0,517.007,482.79Z" transform="translate(-470.216 -438.601)"/></g><path class="b" d="M334.864,194.85l-.477,3.635-43.7,0a24.36,24.36,0,0,1,.524-3.635Z" transform="translate(-163.831 -143.121)"/></g></svg>