<svg xmlns="http://www.w3.org/2000/svg" width="22.911" height="21.284" viewBox="0 0 22.911 21.284"><defs><style>.a{fill:#fff;}.b{fill:none;stroke:#9d9d9d;stroke-linecap:round;stroke-linejoin:round;stroke-width:2px;}</style></defs><g transform="translate(0.25 -0.256)"><path class="a" d="M19.985,4.183A18.453,18.453,0,0,1,18.7,9.427a3.145,3.145,0,0,1-2.321,1.889,25.748,25.748,0,0,1-4.915.422,30.864,30.864,0,0,1-3.925-.24A4.135,4.135,0,0,1,4.079,7.9L3.207,2.506H18.386a1.562,1.562,0,0,1,1.6,1.677Z" transform="translate(1.667 0.848)"/><path class="b" d="M19.985,4.183A18.453,18.453,0,0,1,18.7,9.427a3.145,3.145,0,0,1-2.321,1.889,25.748,25.748,0,0,1-4.915.422,30.864,30.864,0,0,1-3.925-.24A4.135,4.135,0,0,1,4.079,7.9L3.207,2.506H18.386a1.562,1.562,0,0,1,1.6,1.677Z" transform="translate(1.667 0.848)"/><path class="b" d="M19.215,16.783H9.9a3.357,3.357,0,0,1-3.314-2.82l-1.6-9.887A3.357,3.357,0,0,0,1.67,1.256H.75" transform="translate(0 0)"/><path class="a" d="M5.863,14.263a1.879,1.879,0,1,0-1.879-1.879A1.879,1.879,0,0,0,5.863,14.263Z" transform="translate(2.195 6.277)"/><path class="b" d="M5.863,14.263a1.879,1.879,0,1,0-1.879-1.879A1.879,1.879,0,0,0,5.863,14.263Z" transform="translate(2.195 6.277)"/><path class="a" d="M12.509,14.263a1.879,1.879,0,1,0-1.879-1.879A1.878,1.878,0,0,0,12.509,14.263Z" transform="translate(6.705 6.277)"/><path class="b" d="M12.509,14.263a1.879,1.879,0,1,0-1.879-1.879A1.878,1.878,0,0,0,12.509,14.263Z" transform="translate(6.705 6.277)"/></g></svg>