<svg xmlns="http://www.w3.org/2000/svg" width="21.38" height="22.808" viewBox="0 0 21.38 22.808"><defs><style>.a{fill:#fff;}</style></defs><g transform="translate(0)"><path class="a" d="M227.619,5.295q.047.071.372.523a11.541,11.541,0,0,1,.945,1.576,8.745,8.745,0,0,1,.64,1.826,9.784,9.784,0,0,1,.264,1.613,6.441,6.441,0,0,1,0,.842,2.083,2.083,0,0,1-.067.332.01.01,0,0,1-.017.006.58.58,0,0,1-.068-.086c-.073-.1-.187-.307-.28-.442a16.885,16.885,0,0,0-1.781-2.161l-.386-.38a7.415,7.415,0,0,1-1.172-1.46,5.742,5.742,0,0,1-.83-3.307,7.8,7.8,0,0,1,.647-2.647,7.612,7.612,0,0,1,.636-1.21.006.006,0,0,1,.011,0,6.915,6.915,0,0,0,1.117,2.195,20.521,20.521,0,0,0,1.4,1.691q.569.616.915,1.016a5.472,5.472,0,0,1,1.3,3.11q.015.168.037.316a2.726,2.726,0,0,1,.027.317q.025.97.086,3.048a.012.012,0,0,0,.013.013h3.035a.025.025,0,0,0,.022-.012L237.4,7.628a.024.024,0,0,1,.021-.011H239.1q.013,0,.006.011l-3.394,5.091a.014.014,0,0,0,0,.016l6.917,10.377a.007.007,0,0,1-.006.011h-1.673a.026.026,0,0,1-.022-.012l-6.445-9.669a.022.022,0,0,0-.018-.01h-4.338c-.032,0-.066.018-.093.019a.013.013,0,0,1-.015-.014.394.394,0,0,1,.013-.126c.042-.154.089-.3.12-.463a8.5,8.5,0,0,0-1.077-5.936,6.9,6.9,0,0,0-.833-1.115,3.16,3.16,0,0,0-.611-.511Q227.608,5.278,227.619,5.295Z" transform="translate(-221.245 -0.316)"/><path class="a" d="M333.361,207.707a.026.026,0,0,1-.014-.019q-.008-.034.018,0a.075.075,0,0,0,.013.015Q333.4,207.723,333.361,207.707Z" transform="translate(-326.475 -202.139)"/><path class="a" d="M682.413,280.408l-.838-1.257a.009.009,0,0,1,0-.01L685,274a.009.009,0,0,1,.008,0h1.676a.009.009,0,0,1,.008.014l-4.262,6.393a.009.009,0,0,1-.016,0Z" transform="translate(-665.414 -266.699)"/><path class="a" d="M78.64,335.9q-.051,1.2-.037,1.595c.022.609.024,1.213-.01,1.821a4.34,4.34,0,0,1-2.719-3.462,6.281,6.281,0,0,1-.054-.65.011.011,0,0,1,0-.01.011.011,0,0,1,.01,0q.411.169.832.322A6.375,6.375,0,0,0,78.64,335.9Z" transform="translate(-75.82 -326.254)"/><path class="a" d="M179.75,361.358c.034-.608.032-1.213.01-1.821q-.014-.391.037-1.595a6.285,6.285,0,0,0,.912-.034q.408-.051.635-.063a3.807,3.807,0,0,1,2.842,1.021,3.959,3.959,0,0,1,1,1.45c.087.217.147.44.238.738a.379.379,0,0,1,0,.2.017.017,0,0,1-.017.014.107.107,0,0,1-.1-.048,4.047,4.047,0,0,0-1.954-1.588,4.827,4.827,0,0,0-1.819-.33q-.121,0-.865.033a.022.022,0,0,0-.024.025v.022a.027.027,0,0,0,.029.03q.289.009.418.01a2.342,2.342,0,0,1,.413.042,5.657,5.657,0,0,1,2.88,1.4,3.433,3.433,0,0,1,.549.692.033.033,0,0,1,0,.032.032.032,0,0,1-.027.017l-.12,0h-.008l-.3-.149q-.021-.01-.021.013V371.1a.012.012,0,0,1-.013.013h-1.39a.009.009,0,0,1-.011-.01v-9.88a.011.011,0,0,0-.013-.013,2.978,2.978,0,0,0-.612.1c-.175.049-.389.135-.557.177A3.466,3.466,0,0,1,179.75,361.358Z" transform="translate(-176.977 -348.301)"/><path class="a" d="M406.645,546.687h-1.4a.009.009,0,0,1-.009-.009v-8.44a.009.009,0,0,1,.009-.009h3.424a.009.009,0,0,1,.008,0l5.625,8.44a.009.009,0,0,1-.007.014h-1.677a.009.009,0,0,1-.007,0l-4.693-7.041a.009.009,0,0,0-.007,0h-1.25a.009.009,0,0,0-.009.009v7.032A.009.009,0,0,1,406.645,546.687Z" transform="translate(-396.452 -523.879)"/></g></svg>