<svg xmlns="http://www.w3.org/2000/svg" width="22.503" height="19.958" viewBox="0 0 22.503 19.958"><defs><style>.a{fill:#a3a3a3;}.a,.b{fill-rule:evenodd;}.b{fill:#ebebeb;}</style></defs><g transform="translate(-0.002 0.002)"><g transform="translate(0.002 -0.002)"><path class="a" d="M71.907,8.771c.6-.247,1.068.365,1.145.878.187,1.248-.793,1.933-1.408,1.308a1.144,1.144,0,0,1-.382-.71,1.525,1.525,0,0,1,.091-.967c.18-.38.19-.36.554-.51ZM63.7,17.5l1.879.011v2.437l10,0V2.2c0-1.015.031-1.866-.828-2.15a6.051,6.051,0,0,0-2.488.411L66.449,1.982a1.108,1.108,0,0,0-.77.738,16.163,16.163,0,0,0-.094,2.86V17.464A9.336,9.336,0,0,0,63.7,17.5Z" transform="translate(-63.076 0.002)"/><path class="b" d="M1402.86,251.046c.746.051,2.863.014,3.747.013v14.973c.64.051,3.357.013,4.2.013.961,0,.793-.674.793-1.665,0-1.237-1.012-.7-2.5-.845v-10.6c0-1.814.336-3.521-1.133-4.189a7.148,7.148,0,0,0-2.471-.182c-.795,0-1.881-.062-2.641.013v2.472Z" transform="translate(-1389.111 -246.101)"/><path class="b" d="M2.505,1788.088v-2.437l-1.879-.011c-.467.022-.605.246-.614.724-.025,1.418-.1,1.722,1.081,1.719.466,0,.948-.011,1.411,0Z" transform="translate(-0.002 -1768.139)"/><path class="b" d="M831.9,889.423c-.364.15-.373.13-.554.51a1.525,1.525,0,0,0-.091.967,1.144,1.144,0,0,0,.382.71c.616.625,1.6-.059,1.408-1.308C832.967,889.788,832.5,889.176,831.9,889.423Z" transform="translate(-823.068 -880.649)"/></g></g></svg>