<svg xmlns="http://www.w3.org/2000/svg" width="19.934" height="22.791" viewBox="0 0 19.934 22.791"><defs><style>.a{fill:#a3a3a3;}.a,.b,.c{fill-rule:evenodd;}.b{fill:#ebebeb;}.c{fill:#fff;}</style></defs><g transform="translate(0 -0.012)"><g transform="translate(0 0.012)"><path class="a" d="M9.626,273.355a1.353,1.353,0,0,1,1.483.516,3.223,3.223,0,0,1,.281,1.866c0,1.357.26,2.937-1.063,3.219a1.439,1.439,0,0,1-1.516-.537,3.277,3.277,0,0,1-.269-1.851C8.543,275.149,8.244,273.7,9.626,273.355Zm6.747-4.325-2.848.008-7.119-.008-2.848.008C1.221,268.971,0,270.116,0,272.414c0,2.314,0,4.628,0,6.941a4.142,4.142,0,0,0,.651,2.834,2.925,2.925,0,0,0,2.358,1.081c2.293.048,4.644,0,6.944,0s4.64.035,6.944,0a3.055,3.055,0,0,0,2.41-1.088,4.035,4.035,0,0,0,.628-2.828c0-2.314,0-4.628,0-6.941a3.172,3.172,0,0,0-.916-2.6,3.479,3.479,0,0,0-2.644-.785Z" transform="translate(0 -260.502)"/><path class="b" d="M112.265,8.548l2.848-.008c0-2.188-.238-4.023,1.73-5.194a3.687,3.687,0,0,1,1.814-.493,3.582,3.582,0,0,1,3.017,1.6c.728,1.223.557,2.528.557,4.092l2.848-.008c0-3.171-.076-5.212-2.315-7.07a6.643,6.643,0,0,0-1.111-.728,6.443,6.443,0,0,0-5.98.011,6.36,6.36,0,0,0-2.047,1.69c-1.409,1.961-1.362,3.282-1.362,6.1Z" transform="translate(-108.705 -0.012)"/><path class="c" d="M269.733,403.936c-1.382.348-1.084,1.794-1.084,3.212a3.277,3.277,0,0,0,.269,1.851,1.439,1.439,0,0,0,1.516.537c1.323-.282,1.063-1.862,1.063-3.219a3.223,3.223,0,0,0-.281-1.866A1.352,1.352,0,0,0,269.733,403.936Z" transform="translate(-260.107 -391.083)"/></g></g></svg>