<svg xmlns="http://www.w3.org/2000/svg" width="19.725" height="20.874" viewBox="0 0 19.725 20.874"><defs><style>.a{fill:#ebebeb;}.a,.b{fill-rule:evenodd;}.b{fill:#a3a3a3;}</style></defs><g transform="translate(-0.005)"><g transform="translate(0.005)"><path class="a" d="M491.61,20.789c.552.4,2.3-.606,2.8-.946.155-.107.263-.163.409-.249a15.9,15.9,0,0,0,2.476-2,18.43,18.43,0,0,0,1.672-2.146,13.809,13.809,0,0,0,.947-1.618,18.619,18.619,0,0,0,1.355-3.78,17.13,17.13,0,0,0,.578-4.529c-.095-1.566-1.425-2.053-2.582-2.548-1.027-.439-6.681-2.973-7.3-2.964l0,20.814-.352-.034Z" transform="translate(-482.131 -0.009)"/><path class="b" d="M9.484,20.78l.352.034L9.833,0a27.186,27.186,0,0,0-3.58,1.414c-1.173.5-2.341.992-3.527,1.495C1.58,3.395.376,3.733.062,5.271A14.62,14.62,0,0,0,.516,9.7a16.506,16.506,0,0,0,2.171,5.362c.392.672.733,1.013,1.039,1.471a6.239,6.239,0,0,0,.9,1.014,13.47,13.47,0,0,0,3.157,2.468,5.243,5.243,0,0,0,1.706.76Z" transform="translate(-0.005)"/></g></g></svg>