<svg xmlns="http://www.w3.org/2000/svg" width="22.517" height="22.744" viewBox="0 0 22.517 22.744"><defs><style>.a{fill:#ffecbe;}.b{fill:none;stroke:#d19f23;stroke-linecap:round;stroke-linejoin:round;stroke-width:2px;}</style></defs><g transform="translate(0.25 0.25)"><path class="a" d="M3.212.75H4.854A2.411,2.411,0,0,1,7.316,3.212c0,2.462,0,2.462-2.462,2.462H3.212A2.411,2.411,0,0,1,.75,3.212C.75.75.75.75,3.212.75" transform="translate(0 0)"/><path class="a" d="M9.712.75h1.641a2.411,2.411,0,0,1,2.462,2.462c0,2.462,0,2.462-2.462,2.462H9.712A2.411,2.411,0,0,1,7.25,3.212C7.25.75,7.25.75,9.712.75" transform="translate(4.17 0)"/><path class="a" d="M3.212,6H4.854A2.411,2.411,0,0,1,7.316,8.462c0,2.462,0,2.462-2.462,2.462H3.212A2.411,2.411,0,0,1,.75,8.462C.75,6,.75,6,3.212,6" transform="translate(0 3.368)"/><path class="b" d="M3.212.75H4.854A2.411,2.411,0,0,1,7.316,3.212h0A2.411,2.411,0,0,1,4.854,5.674H3.212A2.411,2.411,0,0,1,.75,3.212h0A2.411,2.411,0,0,1,3.212.75" transform="translate(0 0)"/><path class="a" d="M18.372,14.864A7.868,7.868,0,0,1,17.1,19.292H7.617L6.228,17.9a3.283,3.283,0,0,1,.691-5.172l.7-.4V5.691a2.214,2.214,0,0,1,4.427,0V9.837c2.654.276,6.326,1.231,6.326,5.026Z" transform="translate(2.897 1.788)"/><path class="b" d="M17.1,19.316a7.868,7.868,0,0,0,1.266-4.429c0-3.8-3.672-4.75-6.326-5.026V5.714A2.214,2.214,0,0,0,9.831,3.5h0A2.216,2.216,0,0,0,7.615,5.714v6.643l-.694.4a3.283,3.283,0,0,0-.693,5.171l1.389,1.39" transform="translate(2.897 1.764)"/><path class="b" d="M13.217,4.443A2.462,2.462,0,0,0,11.083.75H9.442a2.455,2.455,0,0,0-1.77.75" transform="translate(4.44 0)"/><path class="b" d="M7.316,8.462A2.462,2.462,0,0,0,4.854,6H3.212a2.462,2.462,0,0,0,0,4.924H4.854" transform="translate(0 3.368)"/></g></svg>