<?xml version="1.0" encoding="utf-8"?>
<svg xmlns="http://www.w3.org/2000/svg" width="29" height="45.121" viewBox="0 0 29 45.121">
    <defs>
        <style>.a{fill:#9d9d9d;}</style>
    </defs>
    <path class="a" d="M22.444,44.8a6.45,6.45,0,0,1,6.444-6.444h3.222A6.45,6.45,0,0,1,38.556,44.8v.362a6.431,6.431,0,0,1-2.96,5.417l-4.249,2.729a8.859,8.859,0,0,0-4.068,7.451V60.9a3.222,3.222,0,0,0,6.444,0v-.141a2.427,2.427,0,0,1,1.108-2.034L39.079,56A12.9,12.9,0,0,0,45,45.151v-.363A12.888,12.888,0,0,0,32.111,31.9H28.889A12.9,12.9,0,0,0,16,44.8a3.222,3.222,0,0,0,6.444,0ZM30.5,77.021a4.028,4.028,0,1,0-4.028-4.028A4.028,4.028,0,0,0,30.5,77.021Z" transform="translate(-16 -31.9)"/>
    <circle cx="14.5" cy="38" r="2.5" fill="#9d9d9d"/>
</svg>