<svg xmlns="http://www.w3.org/2000/svg" width="21.893" height="22.794" viewBox="0 0 21.893 22.794"><defs><style>.a{fill:#fff;}.b{fill:none;stroke:#9d9d9d;stroke-linecap:round;stroke-linejoin:round;stroke-width:2px;}</style></defs><g transform="translate(-0.265 0.001)"><path class="a" d="M13.325,20.962C17.915,15.611,9.993,3.241,17.356,1H5.3c-7.055,2.241.249,15.021-4.031,19.537,0,0,1.455,1.256,5.922,1.256S13.325,20.962,13.325,20.962Z" transform="translate(0 0.001)"/><path class="a" d="M15.3,9.474H8.909C7.687,2.535,10.772.949,12.574,1,16.316,1.583,16.013,6.892,15.3,9.474Z" transform="translate(5.397 0)"/><path class="b" d="M15.3,9.474H8.909C7.687,2.535,10.772.949,12.574,1,16.316,1.583,16.013,6.892,15.3,9.474Z" transform="translate(5.397 0)"/><path class="b" d="M13.325,20.962C17.915,15.611,9.993,3.241,17.356,1H5.3c-7.055,2.241.249,15.021-4.031,19.537,0,0,1.455,1.256,5.922,1.256S13.325,20.962,13.325,20.962Z" transform="translate(0 0.001)"/><path class="b" d="M4.337,3.939H7.552" transform="translate(2.251 2.154)"/><path class="b" d="M4.577,7H7.792" transform="translate(2.427 4.397)"/><path class="b" d="M4.577,10.061H7.792" transform="translate(2.427 6.641)"/></g></svg>