<svg xmlns="http://www.w3.org/2000/svg" width="25.527" height="19.927" viewBox="0 0 25.527 19.927"><defs><style>.a{fill:#ebebeb;}.a,.b{fill-rule:evenodd;}.b{fill:#a3a3a3;}</style></defs><g transform="translate(0.007 0)"><g transform="translate(-0.007 0)"><path class="a" d="M162.939,5.714c.07,2.981,0,6.049,0,9.04,0,1.885-.061,3.784,1.954,4.767a4.377,4.377,0,0,0,1.938.382,3.7,3.7,0,0,0,2.708-1.724c.656-1.048.5-2.574.5-3.934l8.5-.025V6.127c0-2.141.138-4.539-2.475-5.693A8.58,8.58,0,0,0,172.44.042h-8.154c-1.288,0-2.816-.076-4.057-.022.263.192.859.068,1.553.578,1.566,1.151,1.112,3.287,1.156,5.116Z" transform="translate(-157.27 0)"/><path class="b" d="M517.75,775.4c.521-.062,5.452-.009,6.434-.009,1.609,0,4.888.178,6.219-.28a5.041,5.041,0,0,0,3.293-4.743c-.063-.568-.427-.649-1-.65-1.076,0-2.161.018-3.236,0l-8.5.025c0,1.36.158,2.886-.5,3.934a3.7,3.7,0,0,1-2.708,1.724Z" transform="translate(-508.186 -755.502)"/><path class="b" d="M5.662,6.754c-.043-1.829.41-3.965-1.156-5.116-.695-.51-1.29-.386-1.553-.578A3.094,3.094,0,0,0,.558,2.25,4.84,4.84,0,0,0-.007,5.276c0,1.7.136,1.477,2.053,1.477H5.661Z" transform="translate(0.007 -1.04)"/></g></g></svg>